<svg width="280" height="26" viewBox="0 0 280 26" fill="none" xmlns="http://www.w3.org/2000/svg">
<g clip-path="url(#clip0)">
<path d="M10.46 18.423C10.46 19.9563 10.3 21.2763 9.98 22.383C9.66 23.4763 9.15333 24.3163 8.46 24.903C7.76667 25.4897 6.84667 25.783 5.7 25.783C4.08667 25.783 2.89333 25.1363 2.12 23.843C1.36 22.5363 0.98 20.7297 0.98 18.423C0.98 16.8763 1.13333 15.5563 1.44 14.463C1.76 13.3697 2.26667 12.5363 2.96 11.963C3.65333 11.3763 4.56667 11.083 5.7 11.083C7.3 11.083 8.49333 11.7297 9.28 13.023C10.0667 14.303 10.46 16.103 10.46 18.423ZM2.74 18.423C2.74 20.383 2.96 21.8497 3.4 22.823C3.85333 23.7963 4.62 24.283 5.7 24.283C6.76667 24.283 7.52667 23.803 7.98 22.843C8.44667 21.8697 8.68 20.3963 8.68 18.423C8.68 16.4763 8.44667 15.0163 7.98 14.043C7.52667 13.0697 6.76667 12.583 5.7 12.583C4.62 12.583 3.85333 13.0697 3.4 14.043C2.96 15.0163 2.74 16.4763 2.74 18.423Z" fill="#02378c"/>
<path d="M17.406 25.583H15.858V16.601C15.858 16.085 15.864 15.671 15.876 15.359C15.888 15.047 15.906 14.723 15.93 14.387C15.738 14.579 15.564 14.741 15.408 14.873C15.252 15.005 15.054 15.173 14.814 15.377L13.446 16.493L12.618 15.431L16.092 12.731H17.406V25.583Z" fill="#02378c"/>
<path d="M31.39 18.423C31.39 19.9563 31.23 21.2763 30.91 22.383C30.59 23.4763 30.0833 24.3163 29.39 24.903C28.6967 25.4897 27.7767 25.783 26.63 25.783C25.0167 25.783 23.8233 25.1363 23.05 23.843C22.29 22.5363 21.91 20.7297 21.91 18.423C21.91 16.8763 22.0633 15.5563 22.37 14.463C22.69 13.3697 23.1967 12.5363 23.89 11.963C24.5833 11.3763 25.4967 11.083 26.63 11.083C28.23 11.083 29.4233 11.7297 30.21 13.023C30.9967 14.303 31.39 16.103 31.39 18.423ZM23.67 18.423C23.67 20.383 23.89 21.8497 24.33 22.823C24.7833 23.7963 25.55 24.283 26.63 24.283C27.6967 24.283 28.4567 23.803 28.91 22.843C29.3767 21.8697 29.61 20.3963 29.61 18.423C29.61 16.4763 29.3767 15.0163 28.91 14.043C28.4567 13.0697 27.6967 12.583 26.63 12.583C25.55 12.583 24.7833 13.0697 24.33 14.043C23.89 15.0163 23.67 16.4763 23.67 18.423ZM42.8353 18.423C42.8353 19.9563 42.6753 21.2763 42.3553 22.383C42.0353 23.4763 41.5286 24.3163 40.8353 24.903C40.142 25.4897 39.222 25.783 38.0753 25.783C36.462 25.783 35.2686 25.1363 34.4953 23.843C33.7353 22.5363 33.3553 20.7297 33.3553 18.423C33.3553 16.8763 33.5086 15.5563 33.8153 14.463C34.1353 13.3697 34.642 12.5363 35.3353 11.963C36.0286 11.3763 36.942 11.083 38.0753 11.083C39.6753 11.083 40.8686 11.7297 41.6553 13.023C42.442 14.303 42.8353 16.103 42.8353 18.423ZM35.1153 18.423C35.1153 20.383 35.3353 21.8497 35.7753 22.823C36.2286 23.7963 36.9953 24.283 38.0753 24.283C39.142 24.283 39.902 23.803 40.3553 22.843C40.822 21.8697 41.0553 20.3963 41.0553 18.423C41.0553 16.4763 40.822 15.0163 40.3553 14.043C39.902 13.0697 39.142 12.583 38.0753 12.583C36.9953 12.583 36.2286 13.0697 35.7753 14.043C35.3353 15.0163 35.1153 16.4763 35.1153 18.423ZM50.9206 25.583H49.2006V15.603C49.2006 15.0297 49.2073 14.5697 49.2206 14.223C49.234 13.8763 49.254 13.5163 49.2806 13.143C49.0673 13.3563 48.874 13.5363 48.7006 13.683C48.5273 13.8297 48.3073 14.0163 48.0406 14.243L46.5206 15.483L45.6006 14.303L49.4606 11.303H50.9206V25.583Z" fill="#02378c"/>
<path d="M61.787 26.583H59.895V15.605C59.895 14.9743 59.9023 14.4683 59.917 14.087C59.9317 13.7057 59.9537 13.3097 59.983 12.899C59.7483 13.1337 59.5357 13.3317 59.345 13.493C59.1543 13.6543 58.9123 13.8597 58.619 14.109L56.947 15.473L55.935 14.175L60.181 10.875H61.787V26.583Z" fill="#02378c"/>
<path d="M76.554 18.423C76.554 19.9563 76.394 21.2763 76.074 22.383C75.754 23.4763 75.2473 24.3163 74.554 24.903C73.8607 25.4897 72.9407 25.783 71.794 25.783C70.1807 25.783 68.9873 25.1363 68.214 23.843C67.454 22.5363 67.074 20.7297 67.074 18.423C67.074 16.8763 67.2273 15.5563 67.534 14.463C67.854 13.3697 68.3607 12.5363 69.054 11.963C69.7473 11.3763 70.6607 11.083 71.794 11.083C73.394 11.083 74.5873 11.7297 75.374 13.023C76.1607 14.303 76.554 16.103 76.554 18.423ZM68.834 18.423C68.834 20.383 69.054 21.8497 69.494 22.823C69.9473 23.7963 70.714 24.283 71.794 24.283C72.8607 24.283 73.6207 23.803 74.074 22.843C74.5407 21.8697 74.774 20.3963 74.774 18.423C74.774 16.4763 74.5407 15.0163 74.074 14.043C73.6207 13.0697 72.8607 12.583 71.794 12.583C70.714 12.583 69.9473 13.0697 69.494 14.043C69.054 15.0163 68.834 16.4763 68.834 18.423ZM87.9993 18.423C87.9993 19.9563 87.8393 21.2763 87.5193 22.383C87.1993 23.4763 86.6926 24.3163 85.9993 24.903C85.306 25.4897 84.386 25.783 83.2393 25.783C81.626 25.783 80.4326 25.1363 79.6593 23.843C78.8993 22.5363 78.5193 20.7297 78.5193 18.423C78.5193 16.8763 78.6726 15.5563 78.9793 14.463C79.2993 13.3697 79.806 12.5363 80.4993 11.963C81.1926 11.3763 82.106 11.083 83.2393 11.083C84.8393 11.083 86.0326 11.7297 86.8193 13.023C87.606 14.303 87.9993 16.103 87.9993 18.423ZM80.2793 18.423C80.2793 20.383 80.4993 21.8497 80.9393 22.823C81.3926 23.7963 82.1593 24.283 83.2393 24.283C84.306 24.283 85.066 23.803 85.5193 22.843C85.986 21.8697 86.2193 20.3963 86.2193 18.423C86.2193 16.4763 85.986 15.0163 85.5193 14.043C85.066 13.0697 84.306 12.583 83.2393 12.583C82.1593 12.583 81.3926 13.0697 80.9393 14.043C80.4993 15.0163 80.2793 16.4763 80.2793 18.423Z" fill="#02378c"/>
<path d="M98.539 19.139C98.539 20.519 98.395 21.707 98.107 22.703C97.819 23.687 97.363 24.443 96.739 24.971C96.115 25.499 95.287 25.763 94.255 25.763C92.803 25.763 91.729 25.181 91.033 24.017C90.349 22.841 90.007 21.215 90.007 19.139C90.007 17.747 90.145 16.559 90.421 15.575C90.709 14.591 91.165 13.841 91.789 13.325C92.413 12.797 93.235 12.533 94.255 12.533C95.695 12.533 96.769 13.115 97.477 14.279C98.185 15.431 98.539 17.051 98.539 19.139ZM91.591 19.139C91.591 20.903 91.789 22.223 92.185 23.099C92.593 23.975 93.283 24.413 94.255 24.413C95.215 24.413 95.899 23.981 96.307 23.117C96.727 22.241 96.937 20.915 96.937 19.139C96.937 17.387 96.727 16.073 96.307 15.197C95.899 14.321 95.215 13.883 94.255 13.883C93.283 13.883 92.593 14.321 92.185 15.197C91.789 16.073 91.591 17.387 91.591 19.139Z" fill="#02378c"/>
<path d="M105.139 25.583H103.419V15.603C103.419 15.0297 103.426 14.5697 103.439 14.223C103.452 13.8763 103.472 13.5163 103.499 13.143C103.286 13.3563 103.092 13.5363 102.919 13.683C102.746 13.8297 102.526 14.0163 102.259 14.243L100.739 15.483L99.819 14.303L103.679 11.303H105.139V25.583ZM119.944 18.423C119.944 19.9563 119.784 21.2763 119.464 22.383C119.144 23.4763 118.638 24.3163 117.944 24.903C117.251 25.4897 116.331 25.783 115.184 25.783C113.571 25.783 112.378 25.1363 111.604 23.843C110.844 22.5363 110.464 20.7297 110.464 18.423C110.464 16.8763 110.618 15.5563 110.924 14.463C111.244 13.3697 111.751 12.5363 112.444 11.963C113.138 11.3763 114.051 11.083 115.184 11.083C116.784 11.083 117.978 11.7297 118.764 13.023C119.551 14.303 119.944 16.103 119.944 18.423ZM112.224 18.423C112.224 20.383 112.444 21.8497 112.884 22.823C113.338 23.7963 114.104 24.283 115.184 24.283C116.251 24.283 117.011 23.803 117.464 22.843C117.931 21.8697 118.164 20.3963 118.164 18.423C118.164 16.4763 117.931 15.0163 117.464 14.043C117.011 13.0697 116.251 12.583 115.184 12.583C114.104 12.583 113.338 13.0697 112.884 14.043C112.444 15.0163 112.224 16.4763 112.224 18.423ZM131.39 18.423C131.39 19.9563 131.23 21.2763 130.91 22.383C130.59 23.4763 130.083 24.3163 129.39 24.903C128.696 25.4897 127.776 25.783 126.63 25.783C125.016 25.783 123.823 25.1363 123.05 23.843C122.29 22.5363 121.91 20.7297 121.91 18.423C121.91 16.8763 122.063 15.5563 122.37 14.463C122.69 13.3697 123.196 12.5363 123.89 11.963C124.583 11.3763 125.496 11.083 126.63 11.083C128.23 11.083 129.423 11.7297 130.21 13.023C130.996 14.303 131.39 16.103 131.39 18.423ZM123.67 18.423C123.67 20.383 123.89 21.8497 124.33 22.823C124.783 23.7963 125.55 24.283 126.63 24.283C127.696 24.283 128.456 23.803 128.91 22.843C129.376 21.8697 129.61 20.3963 129.61 18.423C129.61 16.4763 129.376 15.0163 128.91 14.043C128.456 13.0697 127.696 12.583 126.63 12.583C125.55 12.583 124.783 13.0697 124.33 14.043C123.89 15.0163 123.67 16.4763 123.67 18.423ZM139.475 25.583H137.755V15.603C137.755 15.0297 137.762 14.5697 137.775 14.223C137.788 13.8763 137.808 13.5163 137.835 13.143C137.622 13.3563 137.428 13.5363 137.255 13.683C137.082 13.8297 136.862 14.0163 136.595 14.243L135.075 15.483L134.155 14.303L138.015 11.303H139.475V25.583ZM150.92 25.583H149.2V15.603C149.2 15.0297 149.207 14.5697 149.22 14.223C149.234 13.8763 149.254 13.5163 149.28 13.143C149.067 13.3563 148.874 13.5363 148.7 13.683C148.527 13.8297 148.307 14.0163 148.04 14.243L146.52 15.483L145.6 14.303L149.46 11.303H150.92V25.583Z" fill="#02378c"/>
<path d="M164.983 17.482C164.983 19.092 164.815 20.478 164.479 21.64C164.143 22.788 163.611 23.67 162.883 24.286C162.155 24.902 161.189 25.21 159.985 25.21C158.291 25.21 157.038 24.531 156.226 23.173C155.428 21.801 155.029 19.904 155.029 17.482C155.029 15.858 155.19 14.472 155.512 13.324C155.848 12.176 156.38 11.301 157.108 10.699C157.836 10.083 158.795 9.775 159.985 9.775C161.665 9.775 162.918 10.454 163.744 11.812C164.57 13.156 164.983 15.046 164.983 17.482ZM156.877 17.482C156.877 19.54 157.108 21.08 157.57 22.102C158.046 23.124 158.851 23.635 159.985 23.635C161.105 23.635 161.903 23.131 162.379 22.123C162.869 21.101 163.114 19.554 163.114 17.482C163.114 15.438 162.869 13.905 162.379 12.883C161.903 11.861 161.105 11.35 159.985 11.35C158.851 11.35 158.046 11.861 157.57 12.883C157.108 13.905 156.877 15.438 156.877 17.482Z" fill="#02378c"/>
<path d="M172.885 25.583H171.165V15.603C171.165 15.0297 171.172 14.5697 171.185 14.223C171.198 13.8763 171.218 13.5163 171.245 13.143C171.032 13.3563 170.838 13.5363 170.665 13.683C170.492 13.8297 170.272 14.0163 170.005 14.243L168.485 15.483L167.565 14.303L171.425 11.303H172.885V25.583ZM187.69 18.423C187.69 19.9563 187.53 21.2763 187.21 22.383C186.89 23.4763 186.384 24.3163 185.69 24.903C184.997 25.4897 184.077 25.783 182.93 25.783C181.317 25.783 180.124 25.1363 179.35 23.843C178.59 22.5363 178.21 20.7297 178.21 18.423C178.21 16.8763 178.364 15.5563 178.67 14.463C178.99 13.3697 179.497 12.5363 180.19 11.963C180.884 11.3763 181.797 11.083 182.93 11.083C184.53 11.083 185.724 11.7297 186.51 13.023C187.297 14.303 187.69 16.103 187.69 18.423ZM179.97 18.423C179.97 20.383 180.19 21.8497 180.63 22.823C181.084 23.7963 181.85 24.283 182.93 24.283C183.997 24.283 184.757 23.803 185.21 22.843C185.677 21.8697 185.91 20.3963 185.91 18.423C185.91 16.4763 185.677 15.0163 185.21 14.043C184.757 13.0697 183.997 12.583 182.93 12.583C181.85 12.583 181.084 13.0697 180.63 14.043C180.19 15.0163 179.97 16.4763 179.97 18.423ZM199.136 18.423C199.136 19.9563 198.976 21.2763 198.656 22.383C198.336 23.4763 197.829 24.3163 197.136 24.903C196.442 25.4897 195.522 25.783 194.376 25.783C192.762 25.783 191.569 25.1363 190.796 23.843C190.036 22.5363 189.656 20.7297 189.656 18.423C189.656 16.8763 189.809 15.5563 190.116 14.463C190.436 13.3697 190.942 12.5363 191.636 11.963C192.329 11.3763 193.242 11.083 194.376 11.083C195.976 11.083 197.169 11.7297 197.956 13.023C198.742 14.303 199.136 16.103 199.136 18.423ZM191.416 18.423C191.416 20.383 191.636 21.8497 192.076 22.823C192.529 23.7963 193.296 24.283 194.376 24.283C195.442 24.283 196.202 23.803 196.656 22.843C197.122 21.8697 197.356 20.3963 197.356 18.423C197.356 16.4763 197.122 15.0163 196.656 14.043C196.202 13.0697 195.442 12.583 194.376 12.583C193.296 12.583 192.529 13.0697 192.076 14.043C191.636 15.0163 191.416 16.4763 191.416 18.423ZM210.581 18.423C210.581 19.9563 210.421 21.2763 210.101 22.383C209.781 23.4763 209.274 24.3163 208.581 24.903C207.888 25.4897 206.968 25.783 205.821 25.783C204.208 25.783 203.014 25.1363 202.241 23.843C201.481 22.5363 201.101 20.7297 201.101 18.423C201.101 16.8763 201.254 15.5563 201.561 14.463C201.881 13.3697 202.388 12.5363 203.081 11.963C203.774 11.3763 204.688 11.083 205.821 11.083C207.421 11.083 208.614 11.7297 209.401 13.023C210.188 14.303 210.581 16.103 210.581 18.423ZM202.861 18.423C202.861 20.383 203.081 21.8497 203.521 22.823C203.974 23.7963 204.741 24.283 205.821 24.283C206.888 24.283 207.648 23.803 208.101 22.843C208.568 21.8697 208.801 20.3963 208.801 18.423C208.801 16.4763 208.568 15.0163 208.101 14.043C207.648 13.0697 206.888 12.583 205.821 12.583C204.741 12.583 203.974 13.0697 203.521 14.043C203.081 15.0163 202.861 16.4763 202.861 18.423Z" fill="#02378c"/>
<path d="M218.238 25.583H216.69V16.601C216.69 16.085 216.696 15.671 216.708 15.359C216.72 15.047 216.738 14.723 216.762 14.387C216.57 14.579 216.396 14.741 216.24 14.873C216.084 15.005 215.886 15.173 215.646 15.377L214.278 16.493L213.45 15.431L216.924 12.731H218.238V25.583Z" fill="#02378c"/>
<path d="M228.862 25.583H227.142V15.603C227.142 15.0297 227.149 14.5697 227.162 14.223C227.175 13.8763 227.195 13.5163 227.222 13.143C227.009 13.3563 226.815 13.5363 226.642 13.683C226.469 13.8297 226.249 14.0163 225.982 14.243L224.462 15.483L223.542 14.303L227.402 11.303H228.862V25.583ZM243.667 18.423C243.667 19.9563 243.507 21.2763 243.187 22.383C242.867 23.4763 242.361 24.3163 241.667 24.903C240.974 25.4897 240.054 25.783 238.907 25.783C237.294 25.783 236.101 25.1363 235.327 23.843C234.567 22.5363 234.187 20.7297 234.187 18.423C234.187 16.8763 234.341 15.5563 234.647 14.463C234.967 13.3697 235.474 12.5363 236.167 11.963C236.861 11.3763 237.774 11.083 238.907 11.083C240.507 11.083 241.701 11.7297 242.487 13.023C243.274 14.303 243.667 16.103 243.667 18.423ZM235.947 18.423C235.947 20.383 236.167 21.8497 236.607 22.823C237.061 23.7963 237.827 24.283 238.907 24.283C239.974 24.283 240.734 23.803 241.187 22.843C241.654 21.8697 241.887 20.3963 241.887 18.423C241.887 16.4763 241.654 15.0163 241.187 14.043C240.734 13.0697 239.974 12.583 238.907 12.583C237.827 12.583 237.061 13.0697 236.607 14.043C236.167 15.0163 235.947 16.4763 235.947 18.423ZM251.753 25.583H250.033V15.603C250.033 15.0297 250.039 14.5697 250.053 14.223C250.066 13.8763 250.086 13.5163 250.113 13.143C249.899 13.3563 249.706 13.5363 249.533 13.683C249.359 13.8297 249.139 14.0163 248.873 14.243L247.353 15.483L246.433 14.303L250.293 11.303H251.753V25.583ZM266.558 18.423C266.558 19.9563 266.398 21.2763 266.078 22.383C265.758 23.4763 265.251 24.3163 264.558 24.903C263.865 25.4897 262.945 25.783 261.798 25.783C260.185 25.783 258.991 25.1363 258.218 23.843C257.458 22.5363 257.078 20.7297 257.078 18.423C257.078 16.8763 257.231 15.5563 257.538 14.463C257.858 13.3697 258.365 12.5363 259.058 11.963C259.751 11.3763 260.665 11.083 261.798 11.083C263.398 11.083 264.591 11.7297 265.378 13.023C266.165 14.303 266.558 16.103 266.558 18.423ZM258.838 18.423C258.838 20.383 259.058 21.8497 259.498 22.823C259.951 23.7963 260.718 24.283 261.798 24.283C262.865 24.283 263.625 23.803 264.078 22.843C264.545 21.8697 264.778 20.3963 264.778 18.423C264.778 16.4763 264.545 15.0163 264.078 14.043C263.625 13.0697 262.865 12.583 261.798 12.583C260.718 12.583 259.951 13.0697 259.498 14.043C259.058 15.0163 258.838 16.4763 258.838 18.423Z" fill="#02378c"/>
<path d="M273.634 26.583H271.742V15.605C271.742 14.9743 271.749 14.4683 271.764 14.087C271.779 13.7057 271.801 13.3097 271.83 12.899C271.595 13.1337 271.383 13.3317 271.192 13.493C271.001 13.6543 270.759 13.8597 270.466 14.109L268.794 15.473L267.782 14.175L272.028 10.875H273.634V26.583Z" fill="#02378c"/>
</g>
<defs>
<clipPath id="clip0">
<rect width="279.281" height="25.734" fill="#02378c"/>
</clipPath>
</defs>
</svg>
